<svg id="Raggruppa_2" data-name="Raggruppa 2" xmlns="http://www.w3.org/2000/svg" xmlns:xlink="http://www.w3.org/1999/xlink" width="436.293" height="137.964" viewBox="0 0 436.293 137.964">
  <defs>
    <clipPath id="clip-path">
      <rect id="Rettangolo_1" data-name="Rettangolo 1" width="436.293" height="137.964" fill="none"/>
    </clipPath>
  </defs>
  <g id="Raggruppa_1" data-name="Raggruppa 1" clip-path="url(#clip-path)">
    <path id="Tracciato_1" data-name="Tracciato 1" d="M222.459,85.314c-11.7,1.145-96.045,18.433-107.758,17.095-2.862-.327-5.877-.49-9.123-2.969,3.783-1.425,6.887-2.472,9.894-3.748,9.917-4.208,19.29-9.195,25.95-18.113,4.019-5.383,3.016-11.552-2.6-15.378-2.718-1.853-5.8-2.413-8.952-2.855a41.482,41.482,0,0,0-14.882.089c.249-2.455,1.615-3.531,2.143-5a29.363,29.363,0,0,0,1.529-4.888c.891-5.219-2.014-8.736-7.289-9.032-20.69-1.161-37.631,18.306-33.716,38.7,1.23,6.406,1.945,12.959,6.785,18.424-1.427.388-2.034.609-2.66.716-21.125,3.613-40.618-.9-58.712-12.007C15.83,81.9,10.448,75.374,8.346,67.379,5.1,55.038,7.482,43.1,14.061,32.016,20.615,20.98,29.683,12.555,40.418,5.751A19.673,19.673,0,0,0,46.687,0a12.16,12.16,0,0,0-5.967,1.946C22.292,11.908,7.657,24.914,1.665,46.209-2.83,62.189,1.8,78.982,15.26,88.86a91.5,91.5,0,0,0,25,12.591c10.653,3.61,21.58,5.982,33.026,3.69,5.283-1.058,10.7-1.468,16.235-2.2,6.582,4.515,13.91,7.546,22.078,7.154,12.243-.588,84.969-20.655,120.806-21.381M83.944,72.519c1.795-12.087,7.147-21.726,19.579-25.926,2.4-.809,4.61-1.071,6.8,1.01,1.208,3.677-.643,6.776-2.568,9.75A36.748,36.748,0,0,1,101.85,63.7c-1.782,1.693-3.885,3.73-1.759,6.353,2.234.683,3.451-.609,4.844-1.237,7.308-3.293,14.806-5.494,22.968-4.626,7.514.8,9.185,3.978,5.33,10.519a28.619,28.619,0,0,1-8.592,9.156c-5.721,3.921-22.2,10.47-29.473,11.641-8.993-5.091-12.782-12.49-11.225-22.983" transform="translate(0)" fill="#c4e3ca"/>
    <path id="Tracciato_2" data-name="Tracciato 2" d="M612.662,103.12a.116.116,0,0,0-.192.127c0,.009.007.018.011.028a16.294,16.294,0,0,0-6.141-3.607C600.2,97.3,593.877,95.115,587.583,93.2c-10.289-3.132-20.986-1.541-31.493-.029a76.552,76.552,0,0,0,5.505-6.335c1.656-2.054,4.084-4.9,4.362-7.663.236-2.354-1.86-3.615-3.691-4.617-1.622-.888-4.553-2.578-6.447-1.59a2.361,2.361,0,0,0-1.174,1.427c-.766,1.87-1.259,3.382-2.754,4.885a70.518,70.518,0,0,1-8.254,6.772,104.083,104.083,0,0,1-9.3,6.115c-3.086,1.8-6.493,3.173-9.527,5.04-19.069,2.44-38.132,4.963-57.14,7.792-8.362,1.245-16.81,2.255-25.216,3.477,2.092-2.759,4.418-5.975,3.148-9.312a.754.754,0,0,0-.816-.4c-3.675.661-6.567,2.83-9.559,4.933q-2.859,2.009-5.693,4.055a24.443,24.443,0,0,0-4.053,3.231,203.017,203.017,0,0,0-23.293-18.362c-7.954-5.279-17.94-1.712-26.333.808a.686.686,0,0,0-.472.953c.382,1.083.252.919,1.234,1.5a.314.314,0,0,0,.241.033c4.853,4.873,10.467,9,15.348,13.867,5.043,5.028,9.5,10.639,14.946,15.252-.95.633-1.856,1.248-2.693,1.767q-7.887,4.889-15.735,9.839c-1.341.846-5.176,2.994-2.339,4.628,1.759,1.013,5.231.595,7.164.487a30.8,30.8,0,0,0,7.508-1.358c5.053-1.587,9.768-4.366,14.436-6.819.239-.126.472-.262.71-.388,1.781,2.552,5.478,2.755,8.355,3.083,5.383.612,10.773,1.164,16.165,1.694,10.489,1.03,21.049,2.193,31.585,2.7-8.077,5.781-16.266,11.38-25.236,15.74a84.949,84.949,0,0,1-12.29,4.9c-1.981.605-3.984,1.074-6,1.549-1.458.343-3.021.631-3.991,1.9-4.086,5.327,8.364,6.973,11.093,6.965a78.193,78.193,0,0,0,23.86-3.9c1.219-.41,2.411-.88,3.591-1.379,1.83.248,3.548,1.134,5.376,1.5a31.269,31.269,0,0,0,7.05.492c2.876-.09,6.593.106,9.316-1.218,2.735-.4,5.414-2.692,5.42-5.488.007-3.126-2.592-4.807-5.319-4.8a13.9,13.9,0,0,0-2.762-.43c-.4-.023-.839-.04-1.282-.044.6-.375,1.206-.752,1.81-1.122,1.6-.98,3.223-1.922,4.83-2.891,4.253,1.994,9.7,2.357,14.3,2.222,3.075-.09,6.8-.178,9.921-1.23a7.807,7.807,0,0,0,7.042-6.648,4.952,4.952,0,0,0-1.493-4.728c4.79-.259,9.607-.905,14.371-1.369,5.427-.527,10.877-.946,16.279-1.687a156.718,156.718,0,0,0,29.163-7.025,164.541,164.541,0,0,0,28.1-12.143c5.393-3.059,12.784-10.352,7.21-16.7m-13.427-3.955c-1.4.987-2.519,2.248-4.011,3.177-1.2.747-2.471,1.378-3.728,2.021-.979.5-3.345,2.28-4.508,1.748-.44-.2-1.577-2.5-1.991-2.973-.692-.781-1.719-1.3-2.377-2.056-1.209-1.385.924-1.859,2.114-2.508,1.519-.828,3.227-1.589,4.207-2.993,2.325.777,4.624,1.623,6.89,2.412,1.133.394,2.269.779,3.4,1.172m-60.275-8.051a102.675,102.675,0,0,0,12.887-9.727,16.921,16.921,0,0,0,3.7-4.631c.161-.288.1-.826.3-1.078a2.759,2.759,0,0,1,2.978-1.1,9.557,9.557,0,0,1,4.37,2.2c2.752,3.413-1.214,7.445-3.3,10.123a76.093,76.093,0,0,0-4.693,6.39c-1.675.24-3.346.475-5.009.684q-10.145,1.278-20.294,2.566a99.831,99.831,0,0,0,9.054-5.432M429.94,109.1q3.615-2.465,7.2-4.973a40.036,40.036,0,0,1,3.6-2.363,16.239,16.239,0,0,1,1.739-.855q2.177-1.566,1.663.62c.535,2.047-2.453,5.331-3.923,7.272-3.838.578-7.663,1.217-11.465,1.947-.541.054-1.086.13-1.634.212.969-.556,1.886-1.224,2.817-1.86M376.893,94.82c-.027-.093-.053-.186-.079-.279a115.874,115.874,0,0,1,12.068-2.861,20.889,20.889,0,0,1,6.96-.326c2.752.459,4.993,2.006,7.214,3.589a238.8,238.8,0,0,1,20.64,16.671,72.523,72.523,0,0,0-13.824,4.974c-1.92.9-3.758,2.412-3.858,4.682,0,.068,0,.137,0,.205-9.629-8.858-17.383-20.433-29.125-26.655m22.328,44.472a30.688,30.688,0,0,1-8.745.931c-1-.043-2.115.344-2.087-.88.034-1.463,3.245-2.74,4.446-3.5q2.454-1.546,4.912-3.084,4.916-3.077,9.848-6.129c2.139-1.329,4.168-3.009,6.409-4.172a26.347,26.347,0,0,1,9.1-.715c1.2.146,5.667.547,3.932,3.414-.335.553-1.74,1.1-2.324,1.452-1.616.986-3.257,1.932-4.91,2.853-6.447,3.593-13.392,7.964-20.584,9.827m89.448,21.145c1.114,2.626-1.783,5.29-4.3,5.327-2.7.039-3.833-2.547-2.88-4.865a4.257,4.257,0,0,1,4.523-2.828,4.541,4.541,0,0,1,2.661,2.366m-6.015-3.111c.2,0,.4.021.6.03a.174.174,0,0,0,.044.109,6.573,6.573,0,0,0-2.844,2.6,4.88,4.88,0,0,0,1.193,6.434,61.747,61.747,0,0,1-7.97.544,28.752,28.752,0,0,1-6.83-.745c-.643-.16-1.265-.423-1.893-.579a129.031,129.031,0,0,0,14.5-8.23c1.055.023,2.161-.171,3.2-.16m-30.512,11.1c-3.451.665-6.947,1.1-10.438,1.492-4,.451-8.276.853-12.168-.464a6.625,6.625,0,0,1-2.826-1.336c-1.482-1.753-.191-3.234,1.53-3.709,1.593-.439,3.238-.709,4.836-1.145a80.365,80.365,0,0,0,9.914-3.447c13.715-5.758,25.679-14.77,37.678-23.393,7.261-5.218,15.15-12.3,24.285-13.5,2.392-.316,23.9-2.315,28.639.281.274.268.541.543.807.819-2.482,2.389-5.946,3.761-8.938,5.359q-5.543,2.959-11.033,6.021-10.473,5.855-20.794,11.977c-13.2,7.8-26.139,18.09-41.492,21.048m48.973-15.229c-4.313.063-8.415-.8-12.648-1.181q9.371-5.636,18.9-11c1.4.129,2.813.093,4.2.322a7.023,7.023,0,0,1,.714.164,6.6,6.6,0,0,0-5.054,3.426,6.013,6.013,0,0,0,1.419,7.558,48.105,48.105,0,0,1-7.534.71m12.048-1.873c-3.236.982-5.591-1.807-4.574-4.975.953-2.968,4.817-4.876,7.628-3.125a.042.042,0,0,0,.055-.062c-.04-.048-.083-.085-.124-.132a2.825,2.825,0,0,1,1.256,3.211,6.607,6.607,0,0,1-4.241,5.083m83.773-29.01a188.733,188.733,0,0,1-26.176,10.113,148.807,148.807,0,0,1-26.043,5.373c-9.633,1.077-19.469,1.21-29.045,2.684a.711.711,0,0,0-.466.284,10.549,10.549,0,0,0-3.174-.7,16.272,16.272,0,0,0-2.761-.129c.435-.243.863-.5,1.3-.74q7-3.874,14.051-7.637c3.48-1.857,7.631-3.451,10.561-6.215a.766.766,0,0,0,.734-.607c.009-.044,0-.079.011-.122l.016-.016a.741.741,0,0,0-.02-1.1c-.305-1.555-1.965-2.208-3.655-2.524a64.174,64.174,0,0,0-14.959-.485c-4.2.22-8.459.474-12.631,1.034a28.314,28.314,0,0,0-11.776,4.751c-6.292,4.031-12.337,8.454-18.41,12.828a.832.832,0,0,0-.091-.028c-10-1.044-20.064-1.6-30.077-2.561q-7.512-.724-15.015-1.537c-4.153-.451-8.218-.61-11.98-2.4,1.723-.921,3.449-1.837,5.143-2.811,1.891-1.088,4.618-2.17,6.059-3.873,2.131-2.518-.789-4.67-3.114-5.183a18.653,18.653,0,0,0-8.65.15c-2.591.065-5.246,1.4-7.7,2.932-.021-.033-.018-.071-.047-.1-4.524-4.57,5.5-7.613,8.667-8.76,2.444-.887,4.964-1.558,7.469-2.263a.959.959,0,0,0,.636-.183c.393-.112.787-.224,1.179-.34,4.413-.422,8.819-.98,13.219-1.6a.72.72,0,0,0,.763-.107c6.3-.9,12.6-1.911,18.881-2.794,12.776-1.794,25.562-3.516,38.348-5.239q19.468-2.625,38.952-5.124,9.6-1.233,19.2-2.436c6.37-.8,12.88-2.018,19.315-1.943a42.286,42.286,0,0,1,12.5,2.431,37.1,37.1,0,0,1-5.663,3.234c-.553.3-1.7.72-1.874,1.491-.2.907.485,1.245.987,1.778.739.784,1.675,1.36,2.395,2.188.785.9,1.159,2.1,1.894,2.987,1.754,2.122,4.3-.252,6.285-1.259,2.748-1.394,6.839-3.06,7.965-6.183.01-.029,0-.05,0-.078,1.862.644,3.722,1.294,5.588,1.925,3.1,1.048,6.719,2.374,7.668,5.863.008.029.033.035.044.061.1,7.7-10.357,12.1-16.5,14.985" transform="translate(-179.694 -34.789)" fill="#c4e3ca"/>
    <path id="Tracciato_3" data-name="Tracciato 3" d="M612.662,103.12a.116.116,0,0,0-.192.127c0,.009.007.018.011.028a16.294,16.294,0,0,0-6.141-3.607C600.2,97.3,593.877,95.115,587.583,93.2c-10.289-3.132-20.986-1.541-31.493-.029a76.552,76.552,0,0,0,5.505-6.335c1.656-2.054,4.084-4.9,4.362-7.663.236-2.354-1.86-3.615-3.691-4.617-1.622-.888-4.553-2.578-6.447-1.59a2.361,2.361,0,0,0-1.174,1.427c-.766,1.87-1.259,3.382-2.754,4.885a70.518,70.518,0,0,1-8.254,6.772,104.083,104.083,0,0,1-9.3,6.115c-3.086,1.8-6.493,3.173-9.527,5.04-19.069,2.44-38.132,4.963-57.14,7.792-8.362,1.245-16.81,2.255-25.216,3.477,2.092-2.759,4.418-5.975,3.148-9.312a.754.754,0,0,0-.816-.4c-3.675.661-6.567,2.83-9.559,4.933q-2.859,2.009-5.693,4.055a24.443,24.443,0,0,0-4.053,3.231,203.017,203.017,0,0,0-23.293-18.362c-7.954-5.279-17.94-1.712-26.333.808a.686.686,0,0,0-.472.953c.382,1.083.252.919,1.234,1.5a.314.314,0,0,0,.241.033c4.853,4.873,10.467,9,15.348,13.867,5.043,5.028,9.5,10.639,14.946,15.252-.95.633-1.856,1.248-2.693,1.767q-7.887,4.889-15.735,9.839c-1.341.846-5.176,2.994-2.339,4.628,1.759,1.013,5.231.595,7.164.487a30.8,30.8,0,0,0,7.508-1.358c5.053-1.587,9.768-4.366,14.436-6.819.239-.126.472-.262.71-.388,1.781,2.552,5.478,2.755,8.355,3.083,5.383.612,10.773,1.164,16.165,1.694,10.489,1.03,21.049,2.193,31.585,2.7-8.077,5.781-16.266,11.38-25.236,15.74a84.949,84.949,0,0,1-12.29,4.9c-1.981.605-3.984,1.074-6,1.549-1.458.343-3.021.631-3.991,1.9-4.086,5.327,8.364,6.973,11.093,6.965a78.193,78.193,0,0,0,23.86-3.9c1.219-.41,2.411-.88,3.591-1.379,1.83.248,3.548,1.134,5.376,1.5a31.269,31.269,0,0,0,7.05.492c2.876-.09,6.593.106,9.316-1.218,2.735-.4,5.414-2.692,5.42-5.488.007-3.126-2.592-4.807-5.319-4.8a13.9,13.9,0,0,0-2.762-.43c-.4-.023-.839-.04-1.282-.044.6-.375,1.206-.752,1.81-1.122,1.6-.98,3.223-1.922,4.83-2.891,4.253,1.994,9.7,2.357,14.3,2.222,3.075-.09,6.8-.178,9.921-1.23a7.807,7.807,0,0,0,7.042-6.648,4.952,4.952,0,0,0-1.493-4.728c4.79-.259,9.607-.905,14.371-1.369,5.427-.527,10.877-.946,16.279-1.687a156.718,156.718,0,0,0,29.163-7.025,164.541,164.541,0,0,0,28.1-12.143C610.845,116.758,618.236,109.466,612.662,103.12Zm-13.427-3.955c-1.4.987-2.519,2.248-4.011,3.177-1.2.747-2.471,1.378-3.728,2.021-.979.5-3.345,2.28-4.508,1.748-.44-.2-1.577-2.5-1.991-2.973-.692-.781-1.719-1.3-2.377-2.056-1.209-1.385.924-1.859,2.114-2.508,1.519-.828,3.227-1.589,4.207-2.993,2.325.777,4.624,1.623,6.89,2.412C596.966,98.387,598.1,98.772,599.236,99.165Zm-60.275-8.051a102.675,102.675,0,0,0,12.887-9.727,16.921,16.921,0,0,0,3.7-4.631c.161-.288.1-.826.3-1.078a2.759,2.759,0,0,1,2.978-1.1,9.557,9.557,0,0,1,4.37,2.2c2.752,3.413-1.214,7.445-3.3,10.123a76.093,76.093,0,0,0-4.693,6.39c-1.675.24-3.346.475-5.009.684q-10.145,1.278-20.294,2.566A99.831,99.831,0,0,0,538.961,91.114ZM429.94,109.1q3.615-2.465,7.2-4.973a40.036,40.036,0,0,1,3.6-2.363,16.239,16.239,0,0,1,1.739-.855q2.177-1.566,1.663.62c.535,2.047-2.453,5.331-3.923,7.272-3.838.578-7.663,1.217-11.465,1.947-.541.054-1.086.13-1.634.212C428.092,110.4,429.008,109.736,429.94,109.1ZM376.893,94.82c-.027-.093-.053-.186-.079-.279a115.874,115.874,0,0,1,12.068-2.861,20.889,20.889,0,0,1,6.96-.326c2.752.459,4.993,2.006,7.214,3.589a238.8,238.8,0,0,1,20.64,16.671,72.523,72.523,0,0,0-13.824,4.974c-1.92.9-3.758,2.412-3.858,4.682,0,.068,0,.137,0,.205C396.389,112.617,388.634,101.041,376.893,94.82Zm22.328,44.472a30.688,30.688,0,0,1-8.745.931c-1-.043-2.115.344-2.087-.88.034-1.463,3.245-2.74,4.446-3.5q2.454-1.546,4.912-3.084,4.916-3.077,9.848-6.129c2.139-1.329,4.168-3.009,6.409-4.172a26.347,26.347,0,0,1,9.1-.715c1.2.146,5.667.547,3.932,3.414-.335.553-1.74,1.1-2.324,1.452-1.616.986-3.257,1.932-4.91,2.853C413.358,133.058,406.413,137.43,399.221,139.292Zm89.448,21.145c1.114,2.626-1.783,5.29-4.3,5.327-2.7.039-3.833-2.547-2.88-4.865a4.257,4.257,0,0,1,4.523-2.828A4.541,4.541,0,0,1,488.669,160.437Zm-6.015-3.111c.2,0,.4.021.6.03a.174.174,0,0,0,.044.109,6.573,6.573,0,0,0-2.844,2.6,4.88,4.88,0,0,0,1.193,6.434,61.747,61.747,0,0,1-7.97.544,28.752,28.752,0,0,1-6.83-.745c-.643-.16-1.265-.423-1.893-.579a129.031,129.031,0,0,0,14.5-8.23C480.509,157.509,481.614,157.314,482.654,157.326Zm-30.512,11.1c-3.451.665-6.947,1.1-10.438,1.492-4,.451-8.276.853-12.168-.464a6.625,6.625,0,0,1-2.826-1.336c-1.482-1.753-.191-3.234,1.53-3.709,1.593-.439,3.238-.709,4.836-1.145a80.365,80.365,0,0,0,9.914-3.447c13.715-5.758,25.679-14.77,37.678-23.393,7.261-5.218,15.15-12.3,24.285-13.5,2.392-.316,23.9-2.315,28.639.281.274.268.541.543.807.819-2.482,2.389-5.946,3.761-8.938,5.359q-5.543,2.959-11.033,6.021-10.473,5.855-20.794,11.977C480.43,155.174,467.5,165.465,452.142,168.423Zm48.973-15.229c-4.313.063-8.415-.8-12.648-1.181q9.371-5.636,18.9-11c1.4.129,2.813.093,4.2.322a7.023,7.023,0,0,1,.714.164,6.6,6.6,0,0,0-5.054,3.426,6.013,6.013,0,0,0,1.419,7.558A48.105,48.105,0,0,1,501.115,153.193Zm12.048-1.873c-3.236.982-5.591-1.807-4.574-4.975.953-2.968,4.817-4.876,7.628-3.125a.042.042,0,0,0,.055-.062c-.04-.048-.083-.085-.124-.132a2.825,2.825,0,0,1,1.256,3.211A6.607,6.607,0,0,1,513.163,151.32Zm83.773-29.01a188.733,188.733,0,0,1-26.176,10.113,148.807,148.807,0,0,1-26.043,5.373c-9.633,1.077-19.469,1.21-29.045,2.684a.711.711,0,0,0-.466.284,10.549,10.549,0,0,0-3.174-.7,16.272,16.272,0,0,0-2.761-.129c.435-.243.863-.5,1.3-.74q7-3.874,14.051-7.637c3.48-1.857,7.631-3.451,10.561-6.215a.766.766,0,0,0,.734-.607c.009-.044,0-.079.011-.122l.016-.016a.741.741,0,0,0-.02-1.1c-.305-1.555-1.965-2.208-3.655-2.524a64.174,64.174,0,0,0-14.959-.485c-4.2.22-8.459.474-12.631,1.034a28.314,28.314,0,0,0-11.776,4.751c-6.292,4.031-12.337,8.454-18.41,12.828a.832.832,0,0,0-.091-.028c-10-1.044-20.064-1.6-30.077-2.561q-7.512-.724-15.015-1.537c-4.153-.451-8.218-.61-11.98-2.4,1.723-.921,3.449-1.837,5.143-2.811,1.891-1.088,4.618-2.17,6.059-3.873,2.131-2.518-.789-4.67-3.114-5.183a18.653,18.653,0,0,0-8.65.15c-2.591.065-5.246,1.4-7.7,2.932-.021-.033-.018-.071-.047-.1-4.524-4.57,5.5-7.613,8.667-8.76,2.444-.887,4.964-1.558,7.469-2.263a.959.959,0,0,0,.636-.183c.393-.112.787-.224,1.179-.34,4.413-.422,8.819-.98,13.219-1.6a.72.72,0,0,0,.763-.107c6.3-.9,12.6-1.911,18.881-2.794,12.776-1.794,25.562-3.516,38.348-5.239q19.468-2.625,38.952-5.124,9.6-1.233,19.2-2.436c6.37-.8,12.88-2.018,19.315-1.943a42.286,42.286,0,0,1,12.5,2.431,37.1,37.1,0,0,1-5.663,3.234c-.553.3-1.7.72-1.874,1.491-.2.907.485,1.245.987,1.778.739.784,1.675,1.36,2.395,2.188.785.9,1.159,2.1,1.894,2.987,1.754,2.122,4.3-.252,6.285-1.259,2.748-1.394,6.839-3.06,7.965-6.183.01-.029,0-.05,0-.078,1.862.644,3.722,1.294,5.588,1.925,3.1,1.048,6.719,2.374,7.668,5.863.008.029.033.035.044.061C613.532,115.022,603.077,119.424,596.936,122.31Z" transform="translate(-179.694 -34.789)" fill="none" stroke="#c4e3ca" stroke-miterlimit="10" stroke-width="4"/>
    <path id="Tracciato_4" data-name="Tracciato 4" d="M490.257,164.991a6.4,6.4,0,0,0-.541-1.98c-.789-1.094-2.339-.468-2.954.463a.327.327,0,0,0,.158.49c.043.01.077.008.117.014a5.226,5.226,0,0,0,.4,4.2c.3.574.745,1.47,1.436,1.557a5.172,5.172,0,0,0,3.076-1.056.444.444,0,0,0,.046-.62,8.234,8.234,0,0,1-1.738-3.068m-2.419-1.09c.106-.033.218-.071.346-.109,1.142-.347,1.077.766,1.313,1.541a9.041,9.041,0,0,0,1.456,2.763,17.755,17.755,0,0,1-1.893.466,6.431,6.431,0,0,1-1.221-4.66" transform="translate(-233.02 -77.767)" fill="#c4e3ca"/>
    <path id="Tracciato_5" data-name="Tracciato 5" d="M490.257,164.991a6.4,6.4,0,0,0-.541-1.98c-.789-1.094-2.339-.468-2.954.463a.327.327,0,0,0,.158.49c.043.01.077.008.117.014a5.226,5.226,0,0,0,.4,4.2c.3.574.745,1.47,1.436,1.557a5.172,5.172,0,0,0,3.076-1.056.444.444,0,0,0,.046-.62A8.234,8.234,0,0,1,490.257,164.991Zm-2.419-1.09c.106-.033.218-.071.346-.109,1.142-.347,1.077.766,1.313,1.541a9.041,9.041,0,0,0,1.456,2.763,17.755,17.755,0,0,1-1.893.466A6.431,6.431,0,0,1,487.838,163.9Z" transform="translate(-233.02 -77.767)" fill="none" stroke="#c4e3ca" stroke-miterlimit="10" stroke-width="4"/>
    <path id="Tracciato_6" data-name="Tracciato 6" d="M743.783,130c-1.187-.441-3.957-.226-4.376,1.2a.325.325,0,0,0,.443.4c1.082-.4,3.274-1.757,3.92-.121a11.4,11.4,0,0,1,.335,2.476c.1.772.205,1.543.3,2.316-1.362.426-2.967,1.694-3.674-.215-.515-1.392-.271-2.992-1.068-4.291a.038.038,0,0,0-.069,0,8.309,8.309,0,0,0-.037,3.4,4.216,4.216,0,0,0,.821,2.371c1.39,1.517,3.152.022,4.63-.463a.48.48,0,0,0,.367-.548c-.248-1.552-.472-3.109-.7-4.664-.108-.756-.079-1.557-.9-1.862" transform="translate(-353.994 -62.14)" fill="#c4e3ca"/>
    <path id="Tracciato_7" data-name="Tracciato 7" d="M743.783,130c-1.187-.441-3.957-.226-4.376,1.2a.325.325,0,0,0,.443.4c1.082-.4,3.274-1.757,3.92-.121a11.4,11.4,0,0,1,.335,2.476c.1.772.205,1.543.3,2.316-1.362.426-2.967,1.694-3.674-.215-.515-1.392-.271-2.992-1.068-4.291a.038.038,0,0,0-.069,0,8.309,8.309,0,0,0-.037,3.4,4.216,4.216,0,0,0,.821,2.371c1.39,1.517,3.152.022,4.63-.463a.48.48,0,0,0,.367-.548c-.248-1.552-.472-3.109-.7-4.664C744.576,131.1,744.6,130.3,743.783,130Z" transform="translate(-353.994 -62.14)" fill="none" stroke="#c4e3ca" stroke-miterlimit="10" stroke-width="4"/>
    <path id="Tracciato_8" data-name="Tracciato 8" d="M503.042,170.621a.085.085,0,0,0,.013-.169.085.085,0,0,0-.013.169" transform="translate(-240.802 -81.606)" fill="#c4e3ca"/>
    <path id="Tracciato_9" data-name="Tracciato 9" d="M503.042,170.621a.085.085,0,0,0,.013-.169A.085.085,0,0,0,503.042,170.621Z" transform="translate(-240.802 -81.606)" fill="none" stroke="#c4e3ca" stroke-miterlimit="10" stroke-width="4"/>
    <path id="Tracciato_10" data-name="Tracciato 10" d="M505.033,167.21a1.041,1.041,0,0,0-.153,2.076,1.041,1.041,0,0,0,.153-2.076" transform="translate(-241.273 -80.052)" fill="#c4e3ca"/>
    <path id="Tracciato_11" data-name="Tracciato 11" d="M505.033,167.21a1.041,1.041,0,0,0-.153,2.076A1.041,1.041,0,0,0,505.033,167.21Z" transform="translate(-241.273 -80.052)" fill="none" stroke="#c4e3ca" stroke-miterlimit="10" stroke-width="4"/>
    <path id="Tracciato_12" data-name="Tracciato 12" d="M519.932,168.427a.085.085,0,0,0,.012-.169.085.085,0,0,0-.012.169" transform="translate(-248.889 -80.556)" fill="#c4e3ca"/>
    <path id="Tracciato_13" data-name="Tracciato 13" d="M519.932,168.427a.085.085,0,0,0,.012-.169A.085.085,0,0,0,519.932,168.427Z" transform="translate(-248.889 -80.556)" fill="none" stroke="#c4e3ca" stroke-miterlimit="10" stroke-width="4"/>
    <path id="Tracciato_14" data-name="Tracciato 14" d="M521.922,165.015a1.041,1.041,0,0,0-.153,2.075,1.041,1.041,0,0,0,.153-2.075" transform="translate(-249.359 -79.002)" fill="#c4e3ca"/>
    <path id="Tracciato_15" data-name="Tracciato 15" d="M521.922,165.015a1.041,1.041,0,0,0-.153,2.075A1.041,1.041,0,0,0,521.922,165.015Z" transform="translate(-249.359 -79.002)" fill="none" stroke="#c4e3ca" stroke-miterlimit="10" stroke-width="4"/>
    <path id="Tracciato_16" data-name="Tracciato 16" d="M536.822,166.232a.085.085,0,0,0,.013-.169.085.085,0,0,0-.013.169" transform="translate(-256.975 -79.505)" fill="#c4e3ca"/>
    <path id="Tracciato_17" data-name="Tracciato 17" d="M536.822,166.232a.085.085,0,0,0,.013-.169A.085.085,0,0,0,536.822,166.232Z" transform="translate(-256.975 -79.505)" fill="none" stroke="#c4e3ca" stroke-miterlimit="10" stroke-width="4"/>
    <path id="Tracciato_18" data-name="Tracciato 18" d="M538.811,162.821a1.041,1.041,0,0,0-.153,2.076,1.041,1.041,0,0,0,.153-2.076" transform="translate(-257.445 -77.951)" fill="#c4e3ca"/>
    <path id="Tracciato_19" data-name="Tracciato 19" d="M538.811,162.821a1.041,1.041,0,0,0-.153,2.076A1.041,1.041,0,0,0,538.811,162.821Z" transform="translate(-257.445 -77.951)" fill="none" stroke="#c4e3ca" stroke-miterlimit="10" stroke-width="4"/>
    <path id="Tracciato_20" data-name="Tracciato 20" d="M553.711,164.038a.085.085,0,0,0,.013-.169.085.085,0,0,0-.013.169" transform="translate(-265.061 -78.454)" fill="#c4e3ca"/>
    <path id="Tracciato_21" data-name="Tracciato 21" d="M553.711,164.038a.085.085,0,0,0,.013-.169A.085.085,0,0,0,553.711,164.038Z" transform="translate(-265.061 -78.454)" fill="none" stroke="#c4e3ca" stroke-miterlimit="10" stroke-width="4"/>
    <path id="Tracciato_22" data-name="Tracciato 22" d="M555.7,160.627a1.041,1.041,0,0,0-.153,2.075,1.041,1.041,0,0,0,.153-2.075" transform="translate(-265.531 -76.901)" fill="#c4e3ca"/>
    <path id="Tracciato_23" data-name="Tracciato 23" d="M555.7,160.627a1.041,1.041,0,0,0-.153,2.075A1.041,1.041,0,0,0,555.7,160.627Z" transform="translate(-265.531 -76.901)" fill="none" stroke="#c4e3ca" stroke-miterlimit="10" stroke-width="4"/>
    <path id="Tracciato_24" data-name="Tracciato 24" d="M570.6,161.843a.085.085,0,0,0,.013-.169.085.085,0,0,0-.013.169" transform="translate(-273.147 -77.403)" fill="#c4e3ca"/>
    <path id="Tracciato_25" data-name="Tracciato 25" d="M570.6,161.843a.085.085,0,0,0,.013-.169A.085.085,0,0,0,570.6,161.843Z" transform="translate(-273.147 -77.403)" fill="none" stroke="#c4e3ca" stroke-miterlimit="10" stroke-width="4"/>
    <path id="Tracciato_26" data-name="Tracciato 26" d="M572.591,158.432a1.041,1.041,0,0,0-.153,2.076,1.041,1.041,0,0,0,.153-2.076" transform="translate(-273.618 -75.85)" fill="#c4e3ca"/>
    <path id="Tracciato_27" data-name="Tracciato 27" d="M572.591,158.432a1.041,1.041,0,0,0-.153,2.076A1.041,1.041,0,0,0,572.591,158.432Z" transform="translate(-273.618 -75.85)" fill="none" stroke="#c4e3ca" stroke-miterlimit="10" stroke-width="4"/>
    <path id="Tracciato_28" data-name="Tracciato 28" d="M587.49,159.649a.085.085,0,0,0,.012-.169.085.085,0,0,0-.012.169" transform="translate(-281.233 -76.353)" fill="#c4e3ca"/>
    <path id="Tracciato_29" data-name="Tracciato 29" d="M587.49,159.649a.085.085,0,0,0,.012-.169A.085.085,0,0,0,587.49,159.649Z" transform="translate(-281.233 -76.353)" fill="none" stroke="#c4e3ca" stroke-miterlimit="10" stroke-width="4"/>
    <path id="Tracciato_30" data-name="Tracciato 30" d="M589.48,156.238a1.041,1.041,0,0,0-.153,2.075,1.041,1.041,0,0,0,.153-2.075" transform="translate(-281.704 -74.799)" fill="#c4e3ca"/>
    <path id="Tracciato_31" data-name="Tracciato 31" d="M589.48,156.238a1.041,1.041,0,0,0-.153,2.075A1.041,1.041,0,0,0,589.48,156.238Z" transform="translate(-281.704 -74.799)" fill="none" stroke="#c4e3ca" stroke-miterlimit="10" stroke-width="4"/>
    <path id="Tracciato_32" data-name="Tracciato 32" d="M604.38,157.455a.085.085,0,0,0,.012-.169.085.085,0,0,0-.012.169" transform="translate(-289.319 -75.303)" fill="#c4e3ca"/>
    <path id="Tracciato_33" data-name="Tracciato 33" d="M604.38,157.455a.085.085,0,0,0,.012-.169A.085.085,0,0,0,604.38,157.455Z" transform="translate(-289.319 -75.303)" fill="none" stroke="#c4e3ca" stroke-miterlimit="10" stroke-width="4"/>
    <path id="Tracciato_34" data-name="Tracciato 34" d="M606.37,154.044a1.041,1.041,0,0,0-.153,2.075,1.041,1.041,0,0,0,.153-2.075" transform="translate(-289.79 -73.749)" fill="#c4e3ca"/>
    <path id="Tracciato_35" data-name="Tracciato 35" d="M606.37,154.044a1.041,1.041,0,0,0-.153,2.075A1.041,1.041,0,0,0,606.37,154.044Z" transform="translate(-289.79 -73.749)" fill="none" stroke="#c4e3ca" stroke-miterlimit="10" stroke-width="4"/>
    <path id="Tracciato_36" data-name="Tracciato 36" d="M621.269,155.26a.085.085,0,0,0,.013-.169.085.085,0,0,0-.013.169" transform="translate(-297.405 -74.252)" fill="#c4e3ca"/>
    <path id="Tracciato_37" data-name="Tracciato 37" d="M621.269,155.26a.085.085,0,0,0,.013-.169A.085.085,0,0,0,621.269,155.26Z" transform="translate(-297.405 -74.252)" fill="none" stroke="#c4e3ca" stroke-miterlimit="10" stroke-width="4"/>
    <path id="Tracciato_38" data-name="Tracciato 38" d="M623.26,151.849a1.041,1.041,0,0,0-.153,2.075,1.041,1.041,0,0,0,.153-2.075" transform="translate(-297.876 -72.698)" fill="#c4e3ca"/>
    <path id="Tracciato_39" data-name="Tracciato 39" d="M623.26,151.849a1.041,1.041,0,0,0-.153,2.075A1.041,1.041,0,0,0,623.26,151.849Z" transform="translate(-297.876 -72.698)" fill="none" stroke="#c4e3ca" stroke-miterlimit="10" stroke-width="4"/>
    <path id="Tracciato_40" data-name="Tracciato 40" d="M638.159,153.066a.085.085,0,0,0,.013-.169.085.085,0,0,0-.013.169" transform="translate(-305.491 -73.201)" fill="#c4e3ca"/>
    <path id="Tracciato_41" data-name="Tracciato 41" d="M638.159,153.066a.085.085,0,0,0,.013-.169A.085.085,0,0,0,638.159,153.066Z" transform="translate(-305.491 -73.201)" fill="none" stroke="#c4e3ca" stroke-miterlimit="10" stroke-width="4"/>
    <path id="Tracciato_42" data-name="Tracciato 42" d="M640.149,149.655A1.041,1.041,0,0,0,640,151.73a1.041,1.041,0,0,0,.153-2.075" transform="translate(-305.962 -71.648)" fill="#c4e3ca"/>
    <path id="Tracciato_43" data-name="Tracciato 43" d="M640.149,149.655A1.041,1.041,0,0,0,640,151.73,1.041,1.041,0,0,0,640.149,149.655Z" transform="translate(-305.962 -71.648)" fill="none" stroke="#c4e3ca" stroke-miterlimit="10" stroke-width="4"/>
    <path id="Tracciato_44" data-name="Tracciato 44" d="M655.049,150.872a.085.085,0,0,0,.013-.169.085.085,0,0,0-.013.169" transform="translate(-313.578 -72.151)" fill="#c4e3ca"/>
    <path id="Tracciato_45" data-name="Tracciato 45" d="M655.049,150.872a.085.085,0,0,0,.013-.169A.085.085,0,0,0,655.049,150.872Z" transform="translate(-313.578 -72.151)" fill="none" stroke="#c4e3ca" stroke-miterlimit="10" stroke-width="4"/>
    <path id="Tracciato_46" data-name="Tracciato 46" d="M657.039,147.461a1.041,1.041,0,0,0-.153,2.076,1.041,1.041,0,0,0,.153-2.076" transform="translate(-314.048 -70.597)" fill="#c4e3ca"/>
    <path id="Tracciato_47" data-name="Tracciato 47" d="M657.039,147.461a1.041,1.041,0,0,0-.153,2.076A1.041,1.041,0,0,0,657.039,147.461Z" transform="translate(-314.048 -70.597)" fill="none" stroke="#c4e3ca" stroke-miterlimit="10" stroke-width="4"/>
    <path id="Tracciato_48" data-name="Tracciato 48" d="M671.938,148.678a.085.085,0,0,0,.012-.169.085.085,0,0,0-.012.169" transform="translate(-321.664 -71.1)" fill="#c4e3ca"/>
    <path id="Tracciato_49" data-name="Tracciato 49" d="M671.938,148.678a.085.085,0,0,0,.012-.169A.085.085,0,0,0,671.938,148.678Z" transform="translate(-321.664 -71.1)" fill="none" stroke="#c4e3ca" stroke-miterlimit="10" stroke-width="4"/>
    <path id="Tracciato_50" data-name="Tracciato 50" d="M673.928,145.266a1.041,1.041,0,0,0-.153,2.075,1.041,1.041,0,0,0,.153-2.075" transform="translate(-322.134 -69.546)" fill="#c4e3ca"/>
    <path id="Tracciato_51" data-name="Tracciato 51" d="M673.928,145.266a1.041,1.041,0,0,0-.153,2.075A1.041,1.041,0,0,0,673.928,145.266Z" transform="translate(-322.134 -69.546)" fill="none" stroke="#c4e3ca" stroke-miterlimit="10" stroke-width="4"/>
    <path id="Tracciato_52" data-name="Tracciato 52" d="M688.828,146.484a.085.085,0,0,0,.013-.169.085.085,0,0,0-.013.169" transform="translate(-329.75 -70.05)" fill="#c4e3ca"/>
    <path id="Tracciato_53" data-name="Tracciato 53" d="M688.828,146.484a.085.085,0,0,0,.013-.169A.085.085,0,0,0,688.828,146.484Z" transform="translate(-329.75 -70.05)" fill="none" stroke="#c4e3ca" stroke-miterlimit="10" stroke-width="4"/>
    <path id="Tracciato_54" data-name="Tracciato 54" d="M690.818,143.072a1.041,1.041,0,0,0-.153,2.075,1.041,1.041,0,0,0,.153-2.075" transform="translate(-330.221 -68.496)" fill="#c4e3ca"/>
    <path id="Tracciato_55" data-name="Tracciato 55" d="M690.818,143.072a1.041,1.041,0,0,0-.153,2.075A1.041,1.041,0,0,0,690.818,143.072Z" transform="translate(-330.221 -68.496)" fill="none" stroke="#c4e3ca" stroke-miterlimit="10" stroke-width="4"/>
    <path id="Tracciato_56" data-name="Tracciato 56" d="M705.717,144.289a.085.085,0,0,0,.013-.169.085.085,0,0,0-.013.169" transform="translate(-337.836 -68.999)" fill="#c4e3ca"/>
    <path id="Tracciato_57" data-name="Tracciato 57" d="M705.717,144.289a.085.085,0,0,0,.013-.169A.085.085,0,0,0,705.717,144.289Z" transform="translate(-337.836 -68.999)" fill="none" stroke="#c4e3ca" stroke-miterlimit="10" stroke-width="4"/>
    <path id="Tracciato_58" data-name="Tracciato 58" d="M707.708,140.878a1.041,1.041,0,0,0-.153,2.075,1.041,1.041,0,0,0,.153-2.075" transform="translate(-338.307 -67.446)" fill="#c4e3ca"/>
    <path id="Tracciato_59" data-name="Tracciato 59" d="M707.708,140.878a1.041,1.041,0,0,0-.153,2.075A1.041,1.041,0,0,0,707.708,140.878Z" transform="translate(-338.307 -67.446)" fill="none" stroke="#c4e3ca" stroke-miterlimit="10" stroke-width="4"/>
    <path id="Tracciato_60" data-name="Tracciato 60" d="M722.607,142.095a.085.085,0,0,0,.013-.169.085.085,0,0,0-.013.169" transform="translate(-345.922 -67.949)" fill="#c4e3ca"/>
    <path id="Tracciato_61" data-name="Tracciato 61" d="M722.607,142.095a.085.085,0,0,0,.013-.169A.085.085,0,0,0,722.607,142.095Z" transform="translate(-345.922 -67.949)" fill="none" stroke="#c4e3ca" stroke-miterlimit="10" stroke-width="4"/>
    <path id="Tracciato_62" data-name="Tracciato 62" d="M724.6,138.683a1.041,1.041,0,0,0-.153,2.076,1.041,1.041,0,0,0,.153-2.076" transform="translate(-346.393 -66.395)" fill="#c4e3ca"/>
    <path id="Tracciato_63" data-name="Tracciato 63" d="M724.6,138.683a1.041,1.041,0,0,0-.153,2.076A1.041,1.041,0,0,0,724.6,138.683Z" transform="translate(-346.393 -66.395)" fill="none" stroke="#c4e3ca" stroke-miterlimit="10" stroke-width="4"/>
  </g>
</svg>
